<svg xmlns="http://www.w3.org/2000/svg" xmlns:xlink="http://www.w3.org/1999/xlink" width="972" height="676.076" viewBox="0 0 972 676.076">
  <defs>
    <path id="path-3" fill-rule="evenodd" d="M128.27502695 167.0595764c0-16.01625774 12.98374226-29 29-29h691.8129176c16.56854249 0 30 13.43145751 30 30v470.5608325c0 4.418278-3.58172201 8-8 8h-734.8129176c-4.418278 0-8-3.581722-8-8V167.0595764z"/>
    <mask id="mask-4" x="0" y="0" maskContentUnits="userSpaceOnUse" maskUnits="userSpaceOnUse">
      <rect width="972" height="676.076" x="0" y="0" fill="black"/>
      <use fill="white" xlink:href="#path-3"/>
    </mask>
    <path id="path-5" fill-rule="evenodd" d="M132.07468747 171.6206601c0-16.01625774 12.98374225-29 29-29h684.21359656c16.5685425 0 30 13.43145751 30 30v461.4386651c0 4.418278-3.581722 8-8 8H140.07468747c-4.418278 0-8-3.581722-8-8V171.6206601z"/>
    <filter id="filter-6" width="200%" height="200%" x="-50%" y="-50%" color-interpolation-filters="sRGB" filterUnits="userSpaceOnUse">
      <feGaussianBlur in="SourceAlpha" result="innershadow-1-feGaussianBlur-innershadow" stdDeviation="1.807"/>
      <feOffset dx="0" dy="1" in="innershadow-1-feGaussianBlur-innershadow" result="innershadow-1-feOffset-innershadow"/>
      <feComposite in="innershadow-1-feOffset-innershadow" in2="SourceAlpha" k2="-1" k3="1" operator="arithmetic" result="innershadow-1-feOffset-innershadow"/>
      <feColorMatrix in="innershadow-1-feOffset-innershadow" result="innershadow-1-feColorMatrix-innershadow" type="matrix" values="0 0 0 0 0.7411764705882353  0 0 0 0 0.7411764705882353  0 0 0 0 0.7411764705882353  0 0 0 1 0"/>
    </filter>
    <path id="path-50" fill-rule="evenodd" d="M110.1441897 311.21540567h114.55918346"/>
    <filter id="filter-51" width="200%" height="200%" x="-50%" y="-50%" color-interpolation-filters="sRGB" filterUnits="userSpaceOnUse">
      <feOffset dx="0" dy="2" in="SourceAlpha" result="shadow-1-feOffset-shadow"/>
      <feGaussianBlur in="shadow-1-feOffset-shadow" result="shadow-1-feGaussianBlur-shadow" stdDeviation="2.41"/>
      <feColorMatrix in="shadow-1-feGaussianBlur-shadow" result="shadow-1-feColorMatrix-shadow" type="matrix" values="0 0 0 0 0.9490196078431372  0 0 0 0 0.9490196078431372  0 0 0 0 0.9490196078431372  0 0 0 1 0"/>
    </filter>
    <path id="path-84" fill-rule="evenodd" d="M40.88283513 657.78329876h927.11716544s-16.13771192 5.41593218-41.03633355 9.1221674-38.38005041 3.09246068-38.38005041 3.09246068c-.7575146-.03448768-1.51571575-.05173822-2.27401502-.05173822H118.9916324c-1.4101876 0-2.82017147.03389709-4.22872996.1016619 0 0-14.31312528.68859483-37.78329243-3.14238436-23.47016715-3.8309792-36.09677488-9.1221674-36.09677488-9.1221674z"/>
    <filter id="filter-85" width="200%" height="200%" x="-50%" y="-50%" color-interpolation-filters="sRGB" filterUnits="userSpaceOnUse">
      <feOffset dx="0" dy="2" in="SourceAlpha" result="shadow-1-feOffset-shadow"/>
      <feGaussianBlur in="shadow-1-feOffset-shadow" result="shadow-1-feGaussianBlur-shadow" stdDeviation="2.41"/>
      <feColorMatrix in="shadow-1-feGaussianBlur-shadow" result="shadow-1-feColorMatrix-shadow" type="matrix" values="0 0 0 0 0.5098039215686274  0 0 0 0 0.5098039215686274  0 0 0 0 0.5098039215686274  0 0 0 1 0"/>
    </filter>
    <rect id="rect-86" width="22.235" height="22.609" x="162.735" y="200.684"/>
  </defs>
  <g>
    <path fill="rgb(242,242,242)" fill-rule="evenodd" d="M913.88190723 612.80372112c24.56803425-1.3880913 28.90028223-9.35051091 32.62343032-24.8667617 3.7231481-15.51625079-9.4935866-1.25468455-10.34401449-21.6581473-.85042788-20.40346274 21.27987177-21.7672601 16.70956187-44.11844818-4.5703099-22.35118808-12.9175544-1.0802936-27.84926978-28.87752973-4.60000415-8.56347702.46365783-18.19756151.44215968-26.46999932-.04828533-18.5800786-.17751877-33.33836395-11.5818676-35.29582814-16.48192511-2.82898906-38.7268412 23.82416829-42.96744481 61.76582746-4.24060361 37.94165918 23.89140431 29.76003066 19.89233556 57.75505945-3.99906875 27.99502879-28.03975531 13.7338256-23.87080267 33.69045134 4.16895264 19.95662575 22.37787767 29.46346742 46.94591192 28.07537612z"/>
    <rect width="733.253" height="401.363" x="137.155" y="234.447" fill="rgb(255,255,255)"/>
    <g>
      <use fill="rgb(242,242,242)" xlink:href="#path-3"/>
      <use fill-opacity="0" stroke="rgb(189,189,189)" stroke-linecap="butt" stroke-linejoin="miter" stroke-width="2" mask="url(#mask-4)" xlink:href="#path-3"/>
    </g>
    <g>
      <use fill="rgb(255,255,255)" xlink:href="#path-5"/>
      <use fill="black" filter="url(#filter-6)" xlink:href="#path-5"/>
    </g>
    <path fill="rgb(189,189,189)" fill-rule="evenodd" d="M491.81547119 368.2487672c0 7.0848215-2.87844387 13.9065308-6.42387945 13.9065308-3.54543558 0-4.2825863-6.8217093-4.2825863-13.9065308s2.87844387-12.83679767 6.42387945-12.83679767c3.54543558 0 4.2825863 5.75197617 4.2825863 12.83679767z"/>
    <rect width="14.629" height="21.395" x="469.38" y="374.04" fill="rgb(130,130,130)"/>
    <path fill="rgb(224,224,224)" fill-rule="evenodd" d="M485.79570753 57.72019137l72.80396706 77.02078602-4.2825863 3.20919942-68.52138076-62.04452208V57.72019137z"/>
    <rect width="19.272" height="8.121" x="478.157" y="45.22" fill="rgb(189,189,189)" transform="rotate(-30.999882 487.79232442 49.28088132)"/>
    <path fill="rgb(189,189,189)" fill-rule="evenodd" d="M490.07829383 63.06885706c3.88364105 9.36793971-11.72091186 27.70185045-12.8477589 40.6498593-1.12684702 12.94800883 5.35323288 16.48830618 5.35323288 16.48830618l-51.39103557 2.8954874s-2.93206834-18.26388138 7.49452602-41.84818951c10.42659435-23.58430814 20.34228491-26.74332848 31.04875065-31.02226104 10.70646575-4.27893255 16.45864386 3.46885796 20.34228492 12.83679767z"/>
    <path fill="rgb(224,224,224)" fill-rule="evenodd" d="M461.17083632 59.85965765s3.19628735-4.42684557 7.49452602-4.27893256c4.29823867.147913 6.42387945 4.27893256 6.42387945 4.27893256l7.49452602 44.92879184 44.96715612 20.32492965-3.21193972 5.3486657s-41.7552164-5.3486657-49.24974242-12.83679768c-7.49452602-7.48813197-13.91840547-57.76558951-13.91840547-57.76558951z"/>
    <ellipse cx="511.491" cy="225.668" fill="rgb(200,200,200)" rx="12.848" ry="3.209" transform="rotate(26.00001 511.49122532 225.66829422)"/>
    <path fill="rgb(42,201,64)" fill-rule="evenodd" d="M940.6390036 286.71112722s-1.55475551-3.03666184-5.77933754-5.66612665c-4.22458203-2.62946481-7.89244895-2.8434682-7.89244895-2.8434682s-3.8426305-16.31216783-24.76399063-18.25957968c-20.92136014-1.94741186-28.37540594 12.58651643-28.37540594 12.58651643s-6.12314725-1.86187928-10.34772928 1.24567004-3.83997368 7.77965784-3.83997368 7.77965784-26.40080332-.80398485-23.26077286 18.68012938c3.14003047 19.48411423 29.45177052 11.4902524 29.45177052 11.4902524s3.35049218 8.01411287 10.60401981 9.68740866c7.25352763 1.67329578 12.87017964-5.30367798 12.87017964-5.30367798s5.3111205 2.76282482 11.12988443 2.20505956c5.81876392-.55776526 7.70106678-4.01012514 7.70106678-4.01012514s8.40178417 8.64460805 18.8436756 7.68843903c10.44189142-.95616902 14.94885329-10.78283716 14.94885329-10.78283716s12.83178791 1.03146604 12.83178791-12.62671613-14.1215791-11.8706024-14.1215791-11.8706024z"/>
    <ellipse cx="869.958" cy="331.58" fill="rgb(42,201,64)" rx="5.675" ry="5.673"/>
    <ellipse cx="862.091" cy="344.473" fill="rgb(42,201,64)" rx="3.482" ry="3.481"/>
    <path fill="rgb(250,153,23)" fill-rule="evenodd" d="M661.8700748 30.74079876s-1.90040653-3.7183505-7.06419154-6.93809386c-5.163785-3.21974336-9.6470868-3.48178757-9.6470868-3.48178757S640.4618779 2.63384245 614.88931118.24926352s-34.68378522 13.12506619-34.68378522 13.12506619-7.48443651-2.27984548-12.64822152 1.52530576c-5.163785 3.80515125-4.69367109 9.52608364-4.69367109 9.52608364s-32.2701918-.98446836-28.4320743 22.87356054c3.83811751 23.8580289 35.99944562 14.06965544 35.99944562 14.06965544s4.09536878 9.81317058 12.9614902 11.86209818c8.86612142 2.04892759 15.7314594-6.49428047 15.7314594-6.49428047s6.49188114 3.38304086 13.60426426 2.700065c7.11238312-.68297587 9.41315683-4.91034288 9.41315683-4.91034288s10.2696567 10.58520322 23.03297435 9.41438745c12.76331765-1.17081577 18.27226077-13.20343525 18.27226077-13.20343525s15.68453248 1.26301594 15.68453248-15.46123959c0-16.72425552-17.26106817-14.53538877-17.26106817-14.53538877z"/>
    <ellipse cx="575.476" cy="85.682" fill="rgb(250,153,23)" rx="6.937" ry="6.947"/>
    <ellipse cx="565.859" cy="101.47" fill="rgb(250,153,23)" rx="4.257" ry="4.263"/>
    <ellipse cx="552.774" cy="107.311" fill="rgb(250,153,23)" rx="2.838" ry="2.684"/>
    <ellipse cx="851.385" cy="349.244" fill="rgb(42,201,64)" rx="2.322" ry="2.192"/>
    <ellipse cx="503.734" cy="44.913" fill="rgb(224,224,224)" rx="13.912" ry="7.488" transform="rotate(-28.999882 503.73386677 44.91276746)"/>
    <path fill="rgb(224,224,224)" fill-rule="evenodd" d="M810.39989807 332.32761374l7.49452639-3.20919958 41.75521843 68.46292433-12.84775952 7.48813235-25.69551903-37.44066175-10.70646627-35.30119535z"/>
    <rect width="17.13" height="17.116" x="837.166" y="391.163" fill="rgb(130,130,130)" transform="rotate(-3.999873 845.73123674 399.72080487)"/>
    <path fill="rgb(224,224,224)" fill-rule="evenodd" d="M896.05162819 491.00061841l-22.92980475 138.64543642-10.70646627.02032175.4462256-109.75566206-22.48357916 45.43015102 16.505925 49.51952126-8.56517302 1.36312341s-30.42433113-39.52510692-30.42433113-53.98015497c0-14.45504805 19.27163927-64.0152128 19.27163927-64.0152128l58.88556446-7.22752403z"/>
    <path fill="rgb(189,189,189)" fill-rule="evenodd" d="M847.87253 382.6050738c0 8.26562549-5.85831625 16.04599788-10.54496925 16.04599788-3.51498975 0-8.94206755-1.40897298-11.7166325-10.69733193-3.51498976-11.76706511.44174013-20.32493066 8.20164275-20.32493066 7.75990261 0 14.059959 6.7106392 14.059959 14.9762647z"/>
    <path fill="rgb(79,79,79)" fill-rule="evenodd" d="M828.60089072 364.41960952c4.42471726-5.60100132 20.38697701-11.4631517 28.46123332-2.32458105 8.0742563 9.13857064 3.5330976 25.98367246-2.76571428 32.27711044-6.29881188 6.29343798-6.62862817 1.68765478-10.70646627 0s-3.21193988.35090656-3.21193988-3.20919958c0-3.56010613 8.12015044-4.2422995 7.49452639-7.48813235-.62562405-3.24583284-5.2714827.15925661-7.49452639-3.20919957-2.22304368-3.3684562 2.48673128-5.00352266 0-7.48813235-2.48673127-2.4846097-4.86669523 2.56086014-8.565173 0-3.69847778-2.56086014-7.63665715-2.95686423-3.21193989-8.55786554z"/>
    <rect width="14.989" height="10.697" x="156.037" y="387.248" fill="rgb(189,189,189)"/>
    <path fill="rgb(189,189,189)" fill-rule="evenodd" d="M181.73206539 371.20157662c0 7.6752233-.8833955 19.2551965-8.5651726 19.2551965-7.68177709 0-19.27163833-11.5799732-19.27163833-19.2551965 0-7.6752233 6.23662837-13.9065308 13.91840546-13.9065308 7.6817771 0 13.91840547 6.2313075 13.91840547 13.9065308z"/>
    <path fill="rgb(200,200,200)" fill-rule="evenodd" d="M100.36292573 487.8024888v4.27893255s4.45624887 6.21419158 3.21193973 7.48813198c-1.24430915 1.2739404-3.681313-3.59762508-5.35323287-2.13946628-1.67191987 1.4581588 3.77341466 7.24974057 2.14129314 8.55786511-1.63212151 1.30812454-4.2825863-2.13946628-4.2825863-2.13946628l-3.21193972-6.41839883 3.21193973-9.62759826h4.2825863z"/>
    <path fill="rgb(242,242,242)" fill-rule="evenodd" d="M63.81894764 600.78119236c33.05755832-1.85112584 38.8868216-12.46962098 43.89650955-33.16172732 5.00968796-20.69210634-12.77411084-1.67321774-13.91840546-28.88279476-1.14429462-27.20957701 28.63316595-29.02830504 22.48357806-58.83532265-6.1495879-29.80701762-17.38123627-1.44065407-37.4726301-38.51039302-6.18954305-11.42005111.62387555-24.26783912.59494868-35.29976721-.0649704-24.7779549-.23886068-44.4592564-15.58400073-47.0696845-22.17728105-3.77267314-52.10896395 31.7713493-57.81491502 82.36945171-5.70595106 50.59810242 32.1471178 39.68727546 26.76616436 77.02078603C27.38924354 555.7452512-4.95874123 536.72684676.65079975 563.34053248c5.60954099 26.61368573 30.11058958 39.29178571 63.1681479 37.44065988z"/>
    <path fill="none" d="M59.53636135 514.13280808l22.48357806-24.6038622"/>
    <path fill="none" d="M59.53636135 580.45626271L24.20502439 557.9918668"/>
    <path fill="rgb(255,255,255)" fill-rule="evenodd" d="M138.4741163 180.29500494c0-18.22539675 14.77460325-33 33-33H838.408731c17.673112 0 32 14.326888 32 32v12.85780948H138.4741163v-11.85780948z"/>
    <rect width="731.935" height="44.231" x="138.474" y="190.215" fill="rgb(242,242,242)"/>
    <path fill="none" d="M910.69913354 547.82927925l16.70956187-18.44953288"/>
    <path fill="none" d="M910.69913354 597.56280266l-26.25788294-16.84522567"/>
    <path fill="none" stroke="rgb(242,242,242)" stroke-linecap="butt" stroke-linejoin="miter" stroke-width="2" d="M910.69913354 514.1388279v130.75103736"/>
    <path fill="rgb(255,255,255)" fill-rule="evenodd" d="M682.1916001 204.01091602h27.54853674c2.2076601 0 4 1.7923399 4 4v5.83447924c0 2.2076601-1.7923399 4-4 4H682.1916001c-2.2076601 0-4-1.7923399-4-4v-5.83447924c0-2.2076601 1.7923399-4 4-4z"/>
    <path fill="rgb(255,255,255)" fill-rule="evenodd" d="M724.54730345 204.01091602h27.54853674c2.2076601 0 4 1.7923399 4 4v5.83447924c0 2.2076601-1.7923399 4-4 4h-27.54853674c-2.2076601 0-4-1.7923399-4-4v-5.83447924c0-2.2076601 1.7923399-4 4-4z"/>
    <path fill="rgb(255,255,255)" fill-rule="evenodd" d="M767.65935864 204.01091602h47.97003657c2.2076601 0 4 1.7923399 4 4v5.83447924c0 2.2076601-1.7923399 4-4 4h-47.97003657c-2.2076601 0-4-1.7923399-4-4v-5.83447924c0-2.2076601 1.7923399-4 4-4z"/>
    <path fill="rgb(255,255,255)" fill-rule="evenodd" d="M830.43656182 204.01091602h14.69055536c2.2076601 0 4 1.7923399 4 4v5.83447924c0 2.2076601-1.7923399 4-4 4h-14.69055536c-2.2076601 0-4-1.7923399-4-4v-5.83447924c0-2.2076601 1.7923399-4 4-4z"/>
    <path fill="rgb(224,224,224)" fill-rule="evenodd" d="M513.5393884 508.47938293c.00714058-2.14280863 1.70161988-3.8993719 3.84278515-3.9835808L804.701234 493.1959629c2.27428757-.08944441 4.16475496 1.73420632 4.15717043 4.01023943l-.43158182 129.51281475c-.0071997 2.16054752-1.72880595 3.9249185-3.88852664 3.98511771l-287.30809194 8.00831361c-2.25715674.0629151-4.11895345-1.75375548-4.11142894-4.01177635l.42061331-126.2212891z"/>
    <ellipse cx="161.308" cy="169.403" fill="rgb(224,224,224)" rx="3.814" ry="3.673"/>
    <ellipse cx="184.19" cy="169.403" fill="rgb(224,224,224)" rx="3.814" ry="3.673"/>
    <ellipse cx="204.53" cy="169.403" fill="rgb(224,224,224)" rx="3.814" ry="3.673"/>
    <path fill="none"/>
    <path fill="rgb(255,255,255)" fill-rule="evenodd" d="M206.48874307 205.39436118h92.43932103c2.2076601 0 4 1.7923399 4 4v5.57020731c0 2.2076601-1.7923399 4-4 4h-92.43932103c-2.2076601 0-4-1.7923399-4-4v-5.57020731c0-2.2076601 1.7923399-4 4-4z"/>
    <path fill="none" stroke="rgb(242,242,242)" stroke-linecap="round" stroke-linejoin="miter" stroke-width="8" d="M188.83671292 263.61228097h114.55918346"/>
    <g transform="rotate(-89.999903 167.42378143 312.2851388)">
      <use fill="black" stroke="black" stroke-opacity="0" stroke-width="0" filter="url(#filter-51)" xlink:href="#path-50"/>
      <use fill="rgb(242,242,242)" xlink:href="#path-50"/>
    </g>
    <path fill="none" stroke="rgb(242,242,242)" stroke-linecap="round" stroke-linejoin="miter" stroke-width="8" d="M526.20164193 262.64902139H840.9717348"/>
    <path fill="none" stroke="rgb(242,242,242)" stroke-linecap="round" stroke-linejoin="miter" stroke-width="8" d="M526.20164193 292.60154928H648.2553514"/>
    <path fill="none" stroke="rgb(242,242,242)" stroke-linecap="round" stroke-linejoin="miter" stroke-width="8" d="M529.4916101 442.0802593h314.77009287"/>
    <path fill="none" stroke="rgb(242,242,242)" stroke-linecap="round" stroke-linejoin="miter" stroke-width="8" d="M530.15804525 472.0327872h112.82210173"/>
    <path fill="none" stroke="rgb(242,242,242)" stroke-linecap="round" stroke-linejoin="miter" stroke-width="8" d="M189.9073595 293.56480887h114.55918346"/>
    <path fill="none" stroke="rgb(242,242,242)" stroke-linecap="round" stroke-linejoin="miter" stroke-width="8" d="M189.9073595 324.01656517h114.55918346"/>
    <path fill="none" stroke="rgb(242,242,242)" stroke-linecap="round" stroke-linejoin="miter" stroke-width="8" d="M189.9073595 353.46986467h114.55918346"/>
    <path fill="none" stroke="rgb(242,242,242)" stroke-linecap="round" stroke-linejoin="miter" stroke-width="8" d="M192.5449617 443.18548362h284.86103925"/>
    <path fill="none" stroke="rgb(242,242,242)" stroke-linecap="round" stroke-linejoin="miter" stroke-width="8" d="M192.80874307 421.2118057H477.6697823"/>
    <path fill="none" stroke="rgb(242,242,242)" stroke-linecap="round" stroke-linejoin="miter" stroke-width="8" d="M162.87193679 550.05261797h314.53409053"/>
    <path fill="none" stroke="rgb(242,242,242)" stroke-linecap="round" stroke-linejoin="miter" stroke-width="8" d="M192.5449617 464.29504103h284.86103925"/>
    <path fill="none" stroke="rgb(242,242,242)" stroke-linecap="round" stroke-linejoin="miter" stroke-width="8" d="M162.87193679 571.16218349h314.53409053"/>
    <path fill="none" stroke="rgb(242,242,242)" stroke-linecap="round" stroke-linejoin="miter" stroke-width="8" d="M192.5449617 485.40459843h284.86103925"/>
    <path fill="none" stroke="rgb(242,242,242)" stroke-linecap="round" stroke-linejoin="miter" stroke-width="8" d="M162.87193679 592.27174901h314.53409053"/>
    <path fill="none" stroke="rgb(242,242,242)" stroke-linecap="round" stroke-linejoin="miter" stroke-width="8" d="M188.58855838 506.51415583h284.86103924"/>
    <path fill="none" stroke="rgb(242,242,242)" stroke-linecap="round" stroke-linejoin="miter" stroke-width="8" d="M162.87193679 613.38131453h314.53409053"/>
    <path fill="rgb(224,224,224)" fill-rule="evenodd" d="M503.27467834 301.23154343l304.61957637-26.65007959c1.64944478-.14430403 3.10574124 1.07767929 3.25004528 2.72712407l11.42447905 130.5857252c.14430404 1.64944478-1.07767928 3.10574124-2.72712406 3.25004527l-304.61957637 26.6500796c-1.64944479.14430403-3.10574125-1.07767929-3.25004528-2.72712407l-11.42447906-130.5857252c-.14430404-1.64944478 1.07767929-3.10574124 2.72712407-3.25004528z"/>
    <path fill="none" stroke="rgb(242,242,242)" stroke-linecap="butt" stroke-linejoin="miter" stroke-width="2" d="M59.53636135 469.20401623v174.3665017"/>
    <path fill="rgb(224,224,224)" fill-rule="evenodd" d="M252.3947393 341.11795642s-3.62282354 26.83802749-19.48930998 45.20273615c-2.185751 2.52990355-4.60385656 4.89900438-7.27685438 7.01498712-22.0764356 17.4760175-28.9074575 18.07536575-33.1900438 21.0879267-4.2825863 3.01256096-4.81603877 13.68932525-2.14129315 33.13817054 2.67474561 19.4488453 7.49452602 24.10048767 7.49452602 24.10048767l-59.95620817 9.03768287-2.14129315-56.23447122s-9.15582824 9.58723457-19.27163834 26.10886164-13.91840547 27.11304862-13.91840547 27.11304862h-7.49452602s2.70497454-18.98661068 12.8477589-42.17585341c10.14278435-23.18924272 21.41293148-31.12979657 21.41293148-31.12979657s1.80863381-3.38670473 8.00312512-6.69558378c2.99258067-1.59853118 7.97729468-3.71356149 13.40980637-4.35047306 17.1303452-2.00837397 38.54327668 0 38.54327668 0s9.0803343-.63668858 28.90745751-17.07117876c19.82712322-16.43449019 25.69551779-37.15491848 25.69551779-37.15491848l8.5651726 2.00837397z"/>
    <path fill="rgb(189,189,189)" fill-rule="evenodd" d="M838.23671036 496.92705902l56.7442712-8.55786554-26.76616566-90.92732138s2.07959584-3.3103748-10.70646626 0c-12.78606211 3.3103748-13.39686813 3.76714538-28.90745892 16.0459979-15.51059079 12.2788525-21.41293253 23.53413023-21.41293253 23.53413023l-12.84775951-19.25519747-5.35323314 4.27893277 11.7771129 37.44066174 31.04875216-14.9762647 6.42387976 52.41692645z"/>
    <path fill="rgb(79,79,79)" fill-rule="evenodd" d="M516.84445819 36.32552858c.26510227-6.89695088-2.14129315-17.11573022-12.8477589-17.11573022-10.70646574 0-7.53707703 11.0766353-25.69551778 12.83679767-18.15844075 1.76016236-31.9512697-1.84832943-42.82586298 10.69733139-10.87459327 12.54566081-22.7043728 7.51040305-27.83681093 21.39466278-5.13243813 13.88425973-3.96633273 12.65584 4.2825863 20.32492965 8.24891902 7.66908965 7.2832452 10.19852984 23.55422463 3.20919941 16.27097945-6.98933042 8.21014582-22.29099362 24.62487122-32.09199417 16.4147254-9.80100055 14.43634173-6.519729 24.6248712-5.3486657 10.18852949 1.1710633 8.60857166-4.20927398 13.91840547-7.48813197 5.30983382-3.27885799 17.9358895.47855205 18.20099177-6.41839884z"/>
    <path fill="rgb(224,224,224)" fill-rule="evenodd" d="M652.26302868 214.80178825h9.68v9.96080513l-9.68-9.96080513z"/>
    <path fill="rgb(255,255,255)" fill-rule="evenodd" d="M649.00302868 199.86058055h11.36c2.2076601 0 4 1.7923399 4 4v11.92161026c0 2.2076601-1.7923399 4-4 4h-11.36c-2.2076601 0-4-1.7923399-4-4v-11.92161026c0-2.2076601 1.7923399-4 4-4z"/>
    <ellipse cx="588.661" cy="42.615" fill="rgb(255,255,255)" rx="4.503" ry="4.618"/>
    <ellipse cx="607.799" cy="42.615" fill="rgb(255,255,255)" rx="4.503" ry="4.618"/>
    <ellipse cx="874.912" cy="294.402" fill="rgb(255,255,255)" rx="4.503" ry="4.618"/>
    <ellipse cx="894.051" cy="294.402" fill="rgb(255,255,255)" rx="4.503" ry="4.618"/>
    <path fill="rgb(242,242,242)" fill-rule="evenodd" d="M40.88283513 646.6204089c0-1.1045695.8954305-2 2-2h923.11716544c1.1045695 0 2 .8954305 2 2v10.16288986H40.88283513v-10.16288987z"/>
    <path fill="rgb(224,224,224)" fill-rule="evenodd" d="M439.087257 646.6204089H568.2757145c0 4.61819777-3.743789 8.36198678-8.36198679 8.36198678H447.4492438c-4.61819778 0-8.36198678-3.743789-8.36198678-8.36198679z"/>
    <ellipse cx="649.843" cy="209.821" fill="rgb(189,189,189)" rx="1.21" ry="1.245"/>
    <ellipse cx="654.683" cy="209.821" fill="rgb(189,189,189)" rx="1.21" ry="1.245"/>
    <ellipse cx="659.523" cy="209.821" fill="rgb(189,189,189)" rx="1.21" ry="1.245"/>
    <g>
      <use fill="black" stroke="black" stroke-opacity="0" stroke-width="0" filter="url(#filter-85)" xlink:href="#path-84"/>
      <use fill="rgb(189,189,189)" xlink:href="#path-84"/>
    </g>
    <g>
      <path fill="rgb(255,255,255)" fill-rule="evenodd" d="M166.7347377 200.68407369h14.2350356c2.2076601 0 4 1.7923399 4 4v14.60933844c0 2.2076601-1.7923399 4-4 4h-14.2350356c-2.2076601 0-4-1.7923399-4-4V204.6840737c0-2.2076601 1.7923399-4 4-4z"/>
      <g>
        <path fill="rgb(224,224,224)" fill-rule="evenodd" d="M167.94753928 205.39436118h11.80943244c.77990114 0 1.41308192.63318078 1.41308192 1.41308192s-.63318078 1.41308192-1.41308192 1.41308192h-11.80943244c-.77990114 0-1.41308192-.63318078-1.41308192-1.41308192s.63318078-1.41308192 1.41308192-1.41308192z"/>
        <path fill="rgb(224,224,224)" fill-rule="evenodd" d="M167.94753928 211.04668887h11.80943244c.77990114 0 1.41308192.63318078 1.41308192 1.41308193 0 .77990114-.63318078 1.41308192-1.41308192 1.41308192h-11.80943244c-.77990114 0-1.41308192-.63318078-1.41308192-1.41308192 0-.77990115.63318078-1.41308193 1.41308192-1.41308193z"/>
        <path fill="rgb(224,224,224)" fill-rule="evenodd" d="M167.94753928 216.69901657h6.93090034c.77990115 0 1.41308193.63318078 1.41308193 1.41308192s-.63318078 1.41308192-1.41308193 1.41308192h-6.93090034c-.77990114 0-1.41308192-.63318078-1.41308192-1.41308192s.63318078-1.41308192 1.41308192-1.41308192z"/>
      </g>
    </g>
    <g>
      <path fill="rgb(51,153,255)" fill-rule="evenodd" d="M22.5362612 282.73615044s1.90040653-3.7183505 7.06419153-6.93809386c5.163785-3.21974336 9.6470868-3.48178757 9.6470868-3.48178757s3.31406143-20.45396519 28.88662814-22.83854412c25.57256672-2.38457893 36.06664236 15.8919565 36.06664236 15.8919565s7.48443652-2.27984548 12.64822152 1.52530577c5.163785 3.80515124 4.6936711 9.52608363 4.6936711 9.52608363s32.2701918-.98446836 28.43207429 22.87356055c-3.8381175 23.8580289-35.99944562 14.06965543-35.99944562 14.06965543s-4.09536877 9.81317058-12.9614902 11.86209818c-8.86612142 2.0489276-15.73145939-6.49428047-15.73145939-6.49428047s-6.49188114 3.38304086-13.60426426 2.700065c-7.11238312-.68297587-9.41315684-4.91034288-9.41315684-4.91034288s-10.26965669 10.58520322-23.03297434 9.41438745c-12.76331765-1.17081576-18.27226078-13.20343524-18.27226078-13.20343524s-15.68453248 1.26301593-15.68453248-15.4612396c0-16.72425551 17.26106817-14.53538877 17.26106817-14.53538877z"/>
      <ellipse cx="108.93" cy="337.677" fill="rgb(51,153,255)" rx="6.937" ry="6.947" transform="matrix(-1 0 0 1 217.86083422 0)"/>
      <ellipse cx="118.547" cy="353.465" fill="rgb(51,153,255)" rx="4.257" ry="4.263" transform="matrix(-1 0 0 1 237.09456966 0)"/>
      <ellipse cx="131.633" cy="359.306" fill="rgb(51,153,255)" rx="2.838" ry="2.684" transform="matrix(-1 0 0 1 263.26506214 0)"/>
      <ellipse cx="104.134" cy="295.062" fill="rgb(255,255,255)" rx="5.275" ry="5.277" transform="matrix(-1 0 0 1 208.26769015 0)"/>
      <ellipse cx="81.714" cy="295.062" fill="rgb(255,255,255)" rx="5.275" ry="5.277" transform="matrix(-1 0 0 1 163.4284525 0)"/>
      <ellipse cx="60.613" cy="295.062" fill="rgb(255,255,255)" rx="5.275" ry="5.277" transform="matrix(-1 0 0 1 121.22681705 0)"/>
    </g>
    <g>
      <path fill="rgb(255,51,102)" fill-rule="evenodd" d="M357.74498972 286.30549573s1.41582112-2.79606584 5.26289059-5.21719704c3.84706946-2.4211312 7.1871724-2.61817903 7.1871724-2.61817903s3.49924948-12.97863706 22.5510575-14.77175465c19.05180801-1.7931176 25.83975338 9.5481706 25.83975338 9.5481706s5.57597714-1.7143618 9.4230466 1.14697508c3.84706947 2.86133688 3.49683009 7.16327227 3.49683009 7.16327227s24.04160308-.7402848 21.18216865 17.20009485c-2.85943444 17.94037964-26.81993303 10.57987485-26.81993303 10.57987485s-3.0510891 7.37915133-9.65643478 8.91987119c-6.60534569 1.54071986-11.72008847-4.88346534-11.72008847-4.88346534s-4.83651385 2.54392505-10.13530765 2.03035177c-5.29879379-.51357329-7.01289232-3.69240124-7.01289232-3.69240124s-7.65099295 7.95969211-17.15978729 7.07928076c-9.50879434-.88041134-13.61300992-9.92850842-13.61300992-9.92850842s-11.68512746.94974256-11.68512746-11.62629608 12.8596617-10.93008957 12.8596617-10.93008957z"/>
      <ellipse cx="422.109" cy="327.619" fill="rgb(255,51,102)" rx="5.168" ry="5.224" transform="matrix(-1 0 0 1 844.21893264 0)"/>
      <ellipse cx="429.274" cy="339.491" fill="rgb(255,51,102)" rx="3.171" ry="3.205" transform="matrix(-1 0 0 1 858.54825043 0)"/>
      <ellipse cx="439.023" cy="343.884" fill="rgb(255,51,102)" rx="2.114" ry="2.018" transform="matrix(-1 0 0 1 878.04551889 0)"/>
      <ellipse cx="418.089" cy="294.146" fill="rgb(255,255,255)" rx="4.503" ry="4.618" transform="matrix(-1 0 0 1 836.17701554 0)"/>
      <ellipse cx="398.95" cy="294.146" fill="rgb(255,255,255)" rx="4.503" ry="4.618" transform="matrix(-1 0 0 1 797.89961754 0)"/>
      <ellipse cx="380.937" cy="294.146" fill="rgb(255,255,255)" rx="4.503" ry="4.618" transform="matrix(-1 0 0 1 761.87383119 0)"/>
    </g>
    <ellipse cx="912.064" cy="294.402" fill="rgb(255,255,255)" rx="4.503" ry="4.618"/>
    <ellipse cx="625.812" cy="42.615" fill="rgb(255,255,255)" rx="4.503" ry="4.618"/>
    <path fill="rgb(242,242,242)" fill-rule="evenodd" d="M187.19189761 625.81342453h-14.98905204l10.70646575-70.8088205-14.98905205-46.85877828-17.13034519 46.85877828-37.4726301 48.94139064-11.77711232-10.41306184 31.04875066-60.39575866 6.42387944-49.98269683 55.67362187-9.37175566 10.70646575 34.36310407v46.85877828l-18.20099177 70.8088205z"/>
    <path fill="rgb(189,189,189)" fill-rule="evenodd" d="M476.51420858 504.23347296l9.63581917 53.48665696-4.2825863 72.74185347h8.5651726l14.98905204-59.9050558v-74.88131974l-28.90745751 8.55786511z"/>
    <path fill="rgb(189,189,189)" fill-rule="evenodd" d="M447.60675107 510.02444776v58.83532266l-8.5651726 60.97478893h8.5651726l19.27163834-68.4629209 8.5651726-60.97478894h-27.83681094v9.62759825z"/>
    <path fill="rgb(79,79,79)" fill-rule="evenodd" d="M178.52012567 361.57397837c-.72078352-4.4378787-14.5231199-7.03860638-24.49085634-3.20919942-9.96773645 3.82940696-8.20500683 23.20196196-4.4893101 25.48046625 6.18361452 3.7918574 13.98772673 6.12465754 16.13240754 2.33259537 3.43340661-6.0706895-1.91258602-7.83155612-1.07064657-9.62759825.84193945-1.79604214 2.94475563 2.40642241 5.35323287 0 2.40847724-2.40642242-2.9923621-4.78998546 0-9.62759826 2.9923621-4.83761279 9.28595611-.910787 8.5651726-5.3486657z"/>
    <path fill="rgb(224,224,224)" fill-rule="evenodd" d="M429.05143909 125.11337914l65.30944104-3.20919942s42.82586297 14.97626395 47.10844927 23.53412906c4.2825863 8.55786512-6.42387945 26.74332848-6.42387945 26.74332848l-21.41293148 42.78932557-10.70646575-7.48813198s20.34228492-45.99852498 17.1303452-51.34719068c-3.21193973-5.3486657-31.04875067-10.69733139-31.04875067-10.69733139l5.35323288 36.37092673 4.2825863 71.67212033h-13.91840547s-5.35323288-47.06825812-12.8477589-66.32345463c-7.49452602-19.2551965-42.82586297-62.04452207-42.82586297-62.04452207z"/>
    <path fill="rgb(189,189,189)" fill-rule="evenodd" d="M528.97589072 305.31962692h10.70646575s4.2825863 43.8590587 0 55.62612324c-4.2825863 11.76706453-37.4726301 47.06825812-37.4726301 47.06825812s3.17249506 17.24668384 5.35323287 41.71959243c2.1807378 24.47290859 0 31.02226104 0 31.02226104h-59.95620817l2.14129315-83.43918486s4.2825863-25.67359534 7.49452602-34.23146045c3.21193972-8.55786512 37.4726301-66.32345463 37.4726301-66.32345463l7.49452602 8.5578651s-25.69551778 56.69585639-27.83681093 63.11425522c-2.14129315 6.41839884-3.21193972 22.46439592-3.21193972 22.46439592h13.91840546s35.33133696-29.9525279 37.4726301-34.23146045c2.14129316-4.27893256 6.42387945-51.34719068 6.42387945-51.34719068z"/>
    <path fill="rgb(130,130,130)" fill-rule="evenodd" d="M448.67739764 483.46683778l-9.63581917 45.6536902h77.08655336l-7.49452602-45.91720356-59.95620817.26351336z"/>
    <path fill="rgb(79,79,79)" fill-rule="evenodd" d="M491.50588586 361.03194137c0 14.88911127-13.46578857 26.97718056-28.34857142 26.97718056-14.88278286 0-23.50857143-16.23840476-23.50857143-31.12751603 0-14.88911128 17.61436-24.21029026 32.49714285-24.21029026 14.88278286 0 19.36 13.47151445 19.36 28.36062573z"/>
    <path fill="rgb(189,189,189)" fill-rule="evenodd" d="M172.50850387 629.66378776l10.25868873.34232063 21.50310332 9.45139194-.3263593 4.20721788-31.79456145-2.15258237.3591287-11.84834808z"/>
    <path fill="rgb(189,189,189)" fill-rule="evenodd" d="M439.05341184 631.08036098l8.50241692.36269172 17.87489141 8.42293329-.24484842 3.68924275-26.35801639-2.0818353.22555648-10.39303246z"/>
    <path fill="rgb(189,189,189)" fill-rule="evenodd" d="M486.07055468 258.25921547l8.50241692.36269172 17.87489142 8.42293328-.24484842 3.68924276-26.3580164-2.0818353.22555648-10.39303246z"/>
    <path fill="rgb(189,189,189)" fill-rule="evenodd" d="M501.12219954 211.3153872l7.7474444 3.521327 13.41805498 14.50563163-1.60902714 3.32888789-23.6588829-11.80408092 4.10241066-9.5517656z"/>
    <path fill="rgb(189,189,189)" fill-rule="evenodd" d="M481.92198325 631.78940793l8.50241692.36269172 17.87489142 8.42293328-.24484842 3.68924276-26.35801639-2.08183531.22555647-10.39303245z"/>
    <path fill="rgb(189,189,189)" fill-rule="evenodd" d="M858.57944517 617.3509042l-8.95219386.4177234-18.84456598 9.13611372.24616407 3.97621993 27.7553642-2.32711589-.20476843-11.20294116z"/>
    <path fill="rgb(189,189,189)" fill-rule="evenodd" d="M873.1392053 632.86165517l-8.9363732-.67638864-19.81751392 6.77143877-.24025029 3.97658164 27.83208396 1.0727593 1.16205346-11.14439107z"/>
    <path fill="rgb(189,189,189)" fill-rule="evenodd" d="M102.28124518 599.19641927l7.9869524 6.44720632 11.48519353 20.48908468-2.79260268 3.1636313-24.09685142-20.85352488 7.41730817-9.24639742z"/>
  </g>
</svg>
